<svg width="166" height="160" viewBox="0 0 166 160" fill="none" xmlns="http://www.w3.org/2000/svg">
<circle cx="85" cy="80" r="80" fill="#818181" fill-opacity="0.05"/>
<circle cx="85" cy="80" r="65" fill="#818181" fill-opacity="0.1"/>
<circle cx="161.5" cy="111.5" r="3.75" stroke="#818181" stroke-opacity="0.7" stroke-width="1.5"/>
<circle cx="35.5" cy="130.9" r="3.75" stroke="#818181" stroke-opacity="0.7" stroke-width="1.5"/>
<rect x="0.75" y="77.75" width="7.5" height="7.5" stroke="#818181" stroke-opacity="0.7" stroke-width="1.5"/>
<rect x="151.75" y="39.75" width="7.5" height="7.5" stroke="#818181" stroke-opacity="0.4" stroke-width="1.5"/>
<path d="M22.1029 28.25L26 21.5L29.8971 28.25H22.1029Z" stroke="#818181" stroke-opacity="0.7" stroke-width="1.5"/>
<path d="M117.103 154.25L121 147.5L124.897 154.25H117.103Z" stroke="#818181" stroke-opacity="0.4" stroke-width="1.5"/>
<g opacity="0.2">
<path d="M33.4965 54.4395L40.3734 57.4325" stroke="#FF842D" stroke-width="1.5" stroke-linecap="round"/>
<path d="M38.4315 52.4961L35.4385 59.373" stroke="#FF842D" stroke-width="1.5" stroke-linecap="round"/>
</g>
<g opacity="0.4">
<path d="M107.248 7.875L110.998 14.3702" stroke="#FF842D" stroke-width="1.5" stroke-linecap="round"/>
<path d="M112.37 9.24805L105.875 12.998" stroke="#FF842D" stroke-width="1.5" stroke-linecap="round"/>
</g>
<g opacity="0.7">
<path d="M68.4965 132.439L75.3734 135.432" stroke="#FF842D" stroke-width="1.5" stroke-linecap="round"/>
<path d="M73.4315 130.496L70.4385 137.373" stroke="#FF842D" stroke-width="1.5" stroke-linecap="round"/>
</g>
<path d="M102.393 42.9545L103.982 42.8058L107.159 42.5083L115.36 41.7406C117.85 41.5074 120.058 43.3372 120.291 45.8275V45.8275L120.502 48.082L120.607 49.2093M83.3287 44.7394L81.74 44.8882L75.0043 45.5188C71.705 45.8277 69.2808 48.7527 69.5897 52.052L70.7191 64.1145M123.774 83.0275L123.879 84.1548L124.09 86.4093L124.935 95.4275L126.064 107.49C126.373 110.789 123.949 113.714 120.649 114.023L120.269 114.059L113.914 114.654L112.325 114.803M93.2607 116.587L91.672 116.736L88.4946 117.034L80.2941 117.801C77.8038 118.035 75.596 116.205 75.3629 113.714V113.714L75.1518 111.46L75.0462 110.333L74.9935 109.769" stroke="#FF842D" stroke-width="1.5"/>
<path d="M87.1189 79.9241L43.3573 103.113C39.7623 105.018 35.3038 103.63 33.4252 100.021C31.5586 96.4354 32.948 92.0153 36.5305 90.1425L80.6541 67.0751C81.4185 66.6755 82.2424 66.4022 83.0941 66.2656L100.87 63.4157C102.015 63.2322 102.729 64.6175 101.915 65.4431L89.07 78.4717C88.4975 79.0525 87.8395 79.5423 87.1189 79.9241Z" stroke="#FF842D" stroke-width="1.5"/>
<path d="M45.7674 93.5952L84.2133 72.974" stroke="#FF842D" stroke-width="1.5"/>
<path d="M38.4277 88.7012L45.4179 101.982" stroke="#FF842D" stroke-width="1.5"/>
<path d="M42.2723 86.6055L49.2625 99.8868" stroke="#FF842D" stroke-width="1.5"/>
<path d="M81.4173 66.6836L80.4162 68.4354C79.5726 69.9118 80.5292 71.7675 82.2212 71.9367V71.9367C83.8576 72.1003 84.8232 73.8521 84.0877 75.3231L84.0179 75.4626C83.2602 76.978 84.2285 78.7872 85.9096 78.9973L88.0579 79.2659" stroke="#FF842D" stroke-width="1.5"/>
<path d="M66.6795 90.7408L66.4862 91.2729L66.0997 92.337L64.5535 96.5937L63.5096 99.4676C62.3783 102.582 63.986 106.024 67.1006 107.156L103.814 120.491C106.929 121.623 110.371 120.015 111.502 116.9L132.144 60.0721C133.276 56.9575 131.668 53.5155 128.553 52.3841L91.8396 39.0485C88.725 37.9171 85.2829 39.5249 84.1516 42.6395L80.0153 54.0268L76.923 62.5402L75.3768 66.7969" stroke="#FF842D" stroke-width="1.5"/>
<path d="M95.4741 64.4365L100.95 63.7898C101.686 63.7029 102.134 64.5777 101.634 65.1245L97.6727 69.4506L95.4741 64.4365Z" fill="#FF842D"/>
<path d="M117.177 81.2064L100.175 75.0316L98.05 74.2598" stroke="#FF842D" stroke-width="1.5"/>
<path d="M113.764 90.6056L96.7617 84.4308L92.5111 82.8871L90.3859 82.1152" stroke="#FF842D" stroke-width="1.5"/>
<path d="M110.35 100.007L93.348 93.8319L84.847 90.7445L80.5964 89.2008L79.5338 88.8148L79.0025 88.6219L78.7368 88.5254" stroke="#FF842D" stroke-width="1.5"/>
<path d="M86.5869 59.457L90.8374 61.0007L92.9627 61.7726M120.591 71.8067L112.09 68.7193L107.84 67.1756L105.714 66.4037" stroke="#FF842D" stroke-width="1.5"/>
<path d="M90.0005 50.0586L124.005 62.4082" stroke="#FF842D" stroke-width="1.5"/>
<path d="M72.9323 97.0547L106.936 109.404" stroke="#FF842D" stroke-width="1.5"/>
</svg>
